<svg width="180" height="180" viewBox="0 0 180 180" fill="none" xmlns="http://www.w3.org/2000/svg">
<path d="M37.1818 58L67.3636 90H44.7273C44.7273 116.48 65.0245 138 90 138C97.6209 138 104.865 136 111.127 132.4L122.144 144.08C112.863 150.32 101.846 154 90 154C56.6491 154 29.6364 125.36 29.6364 90H7L37.1818 58ZM135.273 90C135.273 63.52 114.975 42 90 42C82.3791 42 75.1355 44 68.8727 47.6L57.8564 35.92C67.1373 29.68 78.1536 26 90 26C123.351 26 150.364 54.64 150.364 90H173L142.818 122L112.636 90H135.273Z" fill="black"/>
</svg>
